# xmcd
#
# Track frame offsets:
#	150
#	20269
#	34881
#	58937
#	75988
#	101464
#	118873
#	129062
#	143873
#	158816
#	171950
#	193250
#	203626
#	220250
#	238285
#	251921
#	264638
#	278259
#	302719
#	317314
#
# Disc length: 4422 seconds
#
# Revision: 0
# Processed by: cddbd v1.5.2PL0 Copyright (c) Steve Scherf et al.
# Submitted via: dBpowerAMP V4.0
#
DISCID=17114414
DTITLE=Various Artist - Homenaje a Eladio El Grande Martínez
DYEAR=1900
DGENRE=
TTITLE0=Marco de Brix - Oración a mi amada
TTITLE1=Los Alfonso - Che trigueña mi
TTITLE2=Luz Mabel Ortigoza - Lejana Flor
TTITLE3=Juan Carlos Oviedo y los hnos Acuña - Mateo Gamarra
TTITLE4=Jorge Lobito Martínez - Selección de Canciones
TTITLE5=Alicia Patiño - Te aguardo
TTITLE6=Alberto de Luque - Canción de Paz
TTITLE7=Marlene Chávez - Tu enojo
TTITLE8=Rolando Ojeda - Ya te perdoné
TTITLE9=Conjunto Lucero del Alba - Nelly
TTITLE10=Johnny Monte - Che pycazú mi
TTITLE11=Lizza Bogado - Raida Poty
TTITLE12=Rogpberto Arévalo y su trío de siempre - Che valle mí
TTITLE13=Menchi Barriocanal - Pacholí
TTITLE14=Oscar Gómez - Otilia
TTITLE15=Grupo Generación - A mi Corrientes Porâ
TTITLE16=Ñamandú - Casamiento del Taravé
TTITLE17=Juan Cancio Barreto - Selección de Canciones
TTITLE18=Paiko - Es linda nuestra tierra
TTITLE19=Todo el elecnco - Lucerito Alba
EXTD=
EXTT0=
EXTT1=
EXTT2=
EXTT3=
EXTT4=
EXTT5=
EXTT6=
EXTT7=
EXTT8=
EXTT9=
EXTT10=
EXTT11=
EXTT12=
EXTT13=
EXTT14=
EXTT15=
EXTT16=
EXTT17=
EXTT18=
EXTT19=
PLAYORDER=
